<svg width="383" height="181" viewBox="0 0 383 181" fill="none" xmlns="http://www.w3.org/2000/svg">
<ellipse cx="75.5" cy="165.5" rx="48.5" ry="13.5" fill="#D9D9D9" fill-opacity="0.33"/>
<g filter="url(#filter0_d_529_103)">
<mask id="path-2-outside-1_529_103" maskUnits="userSpaceOnUse" x="162" y="59" width="208" height="28" fill="black">
<rect fill="white" x="162" y="59" width="208" height="28"/>
<path d="M181.26 60.28C181.56 60.28 181.77 60.39 181.89 60.61C182.03 60.81 182.1 61.05 182.1 61.33V63.7C182.1 63.98 182.03 64.22 181.89 64.42C181.77 64.62 181.56 64.72 181.26 64.72H164.01C163.71 64.72 163.5 64.61 163.38 64.39C163.26 64.17 163.2 63.93 163.2 63.67V61.36C163.2 61.1 163.26 60.86 163.38 60.64C163.5 60.4 163.71 60.28 164.01 60.28H181.26ZM181.11 70.33C181.41 70.33 181.62 70.44 181.74 70.66C181.88 70.86 181.95 71.1 181.95 71.38V73.75C181.95 74.03 181.88 74.27 181.74 74.47C181.62 74.67 181.41 74.77 181.11 74.77H167.7V83.95C167.7 84.23 167.64 84.48 167.52 84.7C167.4 84.9 167.18 85 166.86 85H164.1C163.8 85 163.58 84.9 163.44 84.7C163.32 84.48 163.26 84.23 163.26 83.95V72.37C163.26 71.87 163.46 71.41 163.86 70.99C164.28 70.55 164.87 70.33 165.63 70.33H181.11ZM206.887 74.71C207.007 74.89 207.217 75.24 207.517 75.76C207.817 76.26 208.167 76.85 208.567 77.53C208.967 78.19 209.377 78.89 209.797 79.63C210.237 80.35 210.637 81.04 210.997 81.7C211.377 82.34 211.677 82.89 211.897 83.35C212.137 83.79 212.257 84.07 212.257 84.19C212.257 84.41 212.207 84.6 212.107 84.76C212.007 84.92 211.827 85 211.567 85H208.267C208.027 85 207.837 84.96 207.697 84.88C207.557 84.78 207.427 84.62 207.307 84.4L201.877 74.8H195.547V83.95C195.547 84.23 195.477 84.48 195.337 84.7C195.217 84.9 195.007 85 194.707 85H191.977C191.677 85 191.457 84.9 191.317 84.7C191.177 84.48 191.107 84.23 191.107 83.95V71.38C191.107 71.1 191.167 70.86 191.287 70.66C191.427 70.46 191.657 70.36 191.977 70.36H205.027C205.487 70.36 205.847 70.29 206.107 70.15C206.387 69.99 206.597 69.78 206.737 69.52C206.877 69.26 206.967 68.96 207.007 68.62C207.067 68.28 207.097 67.92 207.097 67.54C207.097 67.16 207.067 66.8 207.007 66.46C206.967 66.12 206.877 65.82 206.737 65.56C206.597 65.3 206.387 65.1 206.107 64.96C205.847 64.8 205.487 64.72 205.027 64.72H191.977C191.657 64.72 191.427 64.62 191.287 64.42C191.167 64.22 191.107 63.98 191.107 63.7V61.33C191.107 61.05 191.167 60.81 191.287 60.61C191.427 60.39 191.657 60.28 191.977 60.28H205.807C206.947 60.28 207.887 60.47 208.627 60.85C209.367 61.23 209.947 61.75 210.367 62.41C210.807 63.07 211.117 63.84 211.297 64.72C211.477 65.6 211.567 66.54 211.567 67.54C211.567 68.38 211.497 69.21 211.357 70.03C211.237 70.83 210.997 71.56 210.637 72.22C210.297 72.86 209.827 73.41 209.227 73.87C208.627 74.31 207.847 74.59 206.887 74.71ZM224.548 60.28C224.668 60.28 224.838 60.34 225.058 60.46C225.278 60.58 225.388 60.87 225.388 61.33V83.98C225.388 84.44 225.278 84.73 225.058 84.85C224.838 84.97 224.668 85.03 224.548 85.03H221.788C221.668 85.03 221.498 84.97 221.278 84.85C221.058 84.73 220.948 84.44 220.948 83.98V61.33C220.948 60.87 221.058 60.58 221.278 60.46C221.498 60.34 221.668 60.28 221.788 60.28H224.548ZM252.763 60.28C252.883 60.28 253.053 60.34 253.273 60.46C253.493 60.58 253.603 60.87 253.603 61.33V63.67C253.603 64.13 253.493 64.42 253.273 64.54C253.053 64.66 252.883 64.72 252.763 64.72H235.513C235.393 64.72 235.223 64.67 235.003 64.57C234.803 64.45 234.703 64.16 234.703 63.7V61.36C234.703 60.88 234.803 60.58 235.003 60.46C235.223 60.34 235.393 60.28 235.513 60.28H252.763ZM239.203 77.83C239.203 78.85 239.463 79.56 239.983 79.96C240.523 80.36 241.253 80.56 242.173 80.56H252.733C253.053 80.56 253.273 80.66 253.393 80.86C253.533 81.06 253.603 81.3 253.603 81.58V83.98C253.603 84.26 253.533 84.5 253.393 84.7C253.273 84.9 253.053 85 252.733 85H242.083C240.643 85 239.443 84.8 238.483 84.4C237.543 83.98 236.793 83.39 236.233 82.63C235.673 81.87 235.273 80.96 235.033 79.9C234.813 78.82 234.703 77.62 234.703 76.3V72.34C234.703 72.1 234.743 71.86 234.823 71.62C234.903 71.36 235.033 71.14 235.213 70.96C235.413 70.76 235.663 70.6 235.963 70.48C236.283 70.36 236.673 70.3 237.133 70.3H252.613C252.913 70.3 253.123 70.4 253.243 70.6C253.383 70.8 253.453 71.04 253.453 71.32V73.69C253.453 73.97 253.383 74.22 253.243 74.44C253.123 74.64 252.913 74.74 252.613 74.74H239.203V77.83ZM283.834 60.28C284.134 60.28 284.344 60.39 284.464 60.61C284.604 60.81 284.674 61.05 284.674 61.33V81.13C284.674 81.59 284.644 82.05 284.584 82.51C284.524 82.97 284.374 83.39 284.134 83.77C283.914 84.13 283.574 84.43 283.114 84.67C282.654 84.89 282.014 85 281.194 85C280.654 85 280.174 84.99 279.754 84.97C279.334 84.95 278.944 84.87 278.584 84.73C278.244 84.59 277.924 84.37 277.624 84.07C277.324 83.77 277.024 83.35 276.724 82.81L267.124 65.89H266.974V83.95C266.974 84.23 266.904 84.48 266.764 84.7C266.644 84.9 266.434 85 266.134 85H263.464C263.164 85 262.944 84.9 262.804 84.7C262.664 84.48 262.594 84.23 262.594 83.95V64.15C262.594 63.67 262.614 63.2 262.654 62.74C262.714 62.28 262.834 61.87 263.014 61.51C263.194 61.15 263.454 60.86 263.794 60.64C264.134 60.4 264.594 60.28 265.174 60.28H267.424C267.924 60.28 268.324 60.32 268.624 60.4C268.944 60.48 269.204 60.61 269.404 60.79C269.624 60.95 269.824 61.17 270.004 61.45C270.184 61.73 270.384 62.07 270.604 62.47L280.174 79.39H280.324V61.33C280.324 61.05 280.384 60.81 280.504 60.61C280.624 60.39 280.844 60.28 281.164 60.28H283.834ZM307.103 60.28C308.723 60.28 310.053 60.54 311.092 61.06C312.153 61.56 312.983 62.26 313.582 63.16C314.183 64.06 314.593 65.12 314.813 66.34C315.053 67.56 315.173 68.88 315.173 70.3V74.98C315.173 76.42 315.053 77.75 314.813 78.97C314.593 80.19 314.183 81.25 313.582 82.15C312.983 83.03 312.153 83.73 311.092 84.25C310.053 84.75 308.723 85 307.103 85H296.873C296.593 85 296.293 84.95 295.973 84.85C295.673 84.73 295.393 84.57 295.133 84.37C294.892 84.17 294.682 83.94 294.502 83.68C294.343 83.4 294.263 83.1 294.263 82.78V62.32C294.263 61.7 294.493 61.21 294.953 60.85C295.433 60.47 295.993 60.28 296.633 60.28H307.103ZM307.013 80.56C307.873 80.56 308.543 80.43 309.023 80.17C309.523 79.91 309.893 79.55 310.133 79.09C310.393 78.61 310.553 78.06 310.613 77.44C310.693 76.82 310.733 76.15 310.733 75.43V69.85C310.733 69.13 310.693 68.46 310.613 67.84C310.553 67.22 310.393 66.68 310.133 66.22C309.893 65.76 309.523 65.4 309.023 65.14C308.543 64.86 307.873 64.72 307.013 64.72H298.702V80.56H307.013ZM327.82 60.28C328.12 60.28 328.33 60.39 328.45 60.61C328.59 60.81 328.66 61.05 328.66 61.33V76.09C328.66 76.73 328.7 77.32 328.78 77.86C328.88 78.4 329.05 78.87 329.29 79.27C329.53 79.67 329.85 79.98 330.25 80.2C330.65 80.42 331.15 80.53 331.75 80.53H341.5C341.8 80.53 342.01 80.64 342.13 80.86C342.27 81.06 342.34 81.3 342.34 81.58V83.95C342.34 84.23 342.27 84.48 342.13 84.7C342.01 84.9 341.8 85 341.5 85H331.6C330.04 85 328.77 84.77 327.79 84.31C326.83 83.83 326.08 83.17 325.54 82.33C325.02 81.49 324.66 80.5 324.46 79.36C324.28 78.2 324.19 76.94 324.19 75.58V61.33C324.19 61.05 324.25 60.81 324.37 60.61C324.51 60.39 324.74 60.28 325.06 60.28H327.82ZM368.219 60.28C368.399 60.28 368.559 60.35 368.699 60.49C368.859 60.61 368.889 60.75 368.789 60.91L359.579 77.41V83.98C359.579 84.26 359.509 84.5 359.369 84.7C359.249 84.9 359.039 85 358.739 85H355.979C355.679 85 355.459 84.9 355.319 84.7C355.199 84.5 355.139 84.26 355.139 83.98V77.41L346.019 60.91C345.919 60.75 345.939 60.61 346.079 60.49C346.219 60.35 346.389 60.28 346.589 60.28H350.009C350.409 60.28 350.699 60.47 350.879 60.85L357.419 72.85L364.019 60.82C364.219 60.46 364.509 60.28 364.889 60.28H368.219Z"/>
</mask>
<path d="M181.26 60.28C181.56 60.28 181.77 60.39 181.89 60.61C182.03 60.81 182.1 61.05 182.1 61.33V63.7C182.1 63.98 182.03 64.22 181.89 64.42C181.77 64.62 181.56 64.72 181.26 64.72H164.01C163.71 64.72 163.5 64.61 163.38 64.39C163.26 64.17 163.2 63.93 163.2 63.67V61.36C163.2 61.1 163.26 60.86 163.38 60.64C163.5 60.4 163.71 60.28 164.01 60.28H181.26ZM181.11 70.33C181.41 70.33 181.62 70.44 181.74 70.66C181.88 70.86 181.95 71.1 181.95 71.38V73.75C181.95 74.03 181.88 74.27 181.74 74.47C181.62 74.67 181.41 74.77 181.11 74.77H167.7V83.95C167.7 84.23 167.64 84.48 167.52 84.7C167.4 84.9 167.18 85 166.86 85H164.1C163.8 85 163.58 84.9 163.44 84.7C163.32 84.48 163.26 84.23 163.26 83.95V72.37C163.26 71.87 163.46 71.41 163.86 70.99C164.28 70.55 164.87 70.33 165.63 70.33H181.11ZM206.887 74.71C207.007 74.89 207.217 75.24 207.517 75.76C207.817 76.26 208.167 76.85 208.567 77.53C208.967 78.19 209.377 78.89 209.797 79.63C210.237 80.35 210.637 81.04 210.997 81.7C211.377 82.34 211.677 82.89 211.897 83.35C212.137 83.79 212.257 84.07 212.257 84.19C212.257 84.41 212.207 84.6 212.107 84.76C212.007 84.92 211.827 85 211.567 85H208.267C208.027 85 207.837 84.96 207.697 84.88C207.557 84.78 207.427 84.62 207.307 84.4L201.877 74.8H195.547V83.95C195.547 84.23 195.477 84.48 195.337 84.7C195.217 84.9 195.007 85 194.707 85H191.977C191.677 85 191.457 84.9 191.317 84.7C191.177 84.48 191.107 84.23 191.107 83.95V71.38C191.107 71.1 191.167 70.86 191.287 70.66C191.427 70.46 191.657 70.36 191.977 70.36H205.027C205.487 70.36 205.847 70.29 206.107 70.15C206.387 69.99 206.597 69.78 206.737 69.52C206.877 69.26 206.967 68.96 207.007 68.62C207.067 68.28 207.097 67.92 207.097 67.54C207.097 67.16 207.067 66.8 207.007 66.46C206.967 66.12 206.877 65.82 206.737 65.56C206.597 65.3 206.387 65.1 206.107 64.96C205.847 64.8 205.487 64.72 205.027 64.72H191.977C191.657 64.72 191.427 64.62 191.287 64.42C191.167 64.22 191.107 63.98 191.107 63.7V61.33C191.107 61.05 191.167 60.81 191.287 60.61C191.427 60.39 191.657 60.28 191.977 60.28H205.807C206.947 60.28 207.887 60.47 208.627 60.85C209.367 61.23 209.947 61.75 210.367 62.41C210.807 63.07 211.117 63.84 211.297 64.72C211.477 65.6 211.567 66.54 211.567 67.54C211.567 68.38 211.497 69.21 211.357 70.03C211.237 70.83 210.997 71.56 210.637 72.22C210.297 72.86 209.827 73.41 209.227 73.87C208.627 74.31 207.847 74.59 206.887 74.71ZM224.548 60.28C224.668 60.28 224.838 60.34 225.058 60.46C225.278 60.58 225.388 60.87 225.388 61.33V83.98C225.388 84.44 225.278 84.73 225.058 84.85C224.838 84.97 224.668 85.03 224.548 85.03H221.788C221.668 85.03 221.498 84.97 221.278 84.85C221.058 84.73 220.948 84.44 220.948 83.98V61.33C220.948 60.87 221.058 60.58 221.278 60.46C221.498 60.34 221.668 60.28 221.788 60.28H224.548ZM252.763 60.28C252.883 60.28 253.053 60.34 253.273 60.46C253.493 60.58 253.603 60.87 253.603 61.33V63.67C253.603 64.13 253.493 64.42 253.273 64.54C253.053 64.66 252.883 64.72 252.763 64.72H235.513C235.393 64.72 235.223 64.67 235.003 64.57C234.803 64.45 234.703 64.16 234.703 63.7V61.36C234.703 60.88 234.803 60.58 235.003 60.46C235.223 60.34 235.393 60.28 235.513 60.28H252.763ZM239.203 77.83C239.203 78.85 239.463 79.56 239.983 79.96C240.523 80.36 241.253 80.56 242.173 80.56H252.733C253.053 80.56 253.273 80.66 253.393 80.86C253.533 81.06 253.603 81.3 253.603 81.58V83.98C253.603 84.26 253.533 84.5 253.393 84.7C253.273 84.9 253.053 85 252.733 85H242.083C240.643 85 239.443 84.8 238.483 84.4C237.543 83.98 236.793 83.39 236.233 82.63C235.673 81.87 235.273 80.96 235.033 79.9C234.813 78.82 234.703 77.62 234.703 76.3V72.34C234.703 72.1 234.743 71.86 234.823 71.62C234.903 71.36 235.033 71.14 235.213 70.96C235.413 70.76 235.663 70.6 235.963 70.48C236.283 70.36 236.673 70.3 237.133 70.3H252.613C252.913 70.3 253.123 70.4 253.243 70.6C253.383 70.8 253.453 71.04 253.453 71.32V73.69C253.453 73.97 253.383 74.22 253.243 74.44C253.123 74.64 252.913 74.74 252.613 74.74H239.203V77.83ZM283.834 60.28C284.134 60.28 284.344 60.39 284.464 60.61C284.604 60.81 284.674 61.05 284.674 61.33V81.13C284.674 81.59 284.644 82.05 284.584 82.51C284.524 82.97 284.374 83.39 284.134 83.77C283.914 84.13 283.574 84.43 283.114 84.67C282.654 84.89 282.014 85 281.194 85C280.654 85 280.174 84.99 279.754 84.97C279.334 84.95 278.944 84.87 278.584 84.73C278.244 84.59 277.924 84.37 277.624 84.07C277.324 83.77 277.024 83.35 276.724 82.81L267.124 65.89H266.974V83.95C266.974 84.23 266.904 84.48 266.764 84.7C266.644 84.9 266.434 85 266.134 85H263.464C263.164 85 262.944 84.9 262.804 84.7C262.664 84.48 262.594 84.23 262.594 83.95V64.15C262.594 63.67 262.614 63.2 262.654 62.74C262.714 62.28 262.834 61.87 263.014 61.51C263.194 61.15 263.454 60.86 263.794 60.64C264.134 60.4 264.594 60.28 265.174 60.28H267.424C267.924 60.28 268.324 60.32 268.624 60.4C268.944 60.48 269.204 60.61 269.404 60.79C269.624 60.95 269.824 61.17 270.004 61.45C270.184 61.73 270.384 62.07 270.604 62.47L280.174 79.39H280.324V61.33C280.324 61.05 280.384 60.81 280.504 60.61C280.624 60.39 280.844 60.28 281.164 60.28H283.834ZM307.103 60.28C308.723 60.28 310.053 60.54 311.092 61.06C312.153 61.56 312.983 62.26 313.582 63.16C314.183 64.06 314.593 65.12 314.813 66.34C315.053 67.56 315.173 68.88 315.173 70.3V74.98C315.173 76.42 315.053 77.75 314.813 78.97C314.593 80.19 314.183 81.25 313.582 82.15C312.983 83.03 312.153 83.73 311.092 84.25C310.053 84.75 308.723 85 307.103 85H296.873C296.593 85 296.293 84.95 295.973 84.85C295.673 84.73 295.393 84.57 295.133 84.37C294.892 84.17 294.682 83.94 294.502 83.68C294.343 83.4 294.263 83.1 294.263 82.78V62.32C294.263 61.7 294.493 61.21 294.953 60.85C295.433 60.47 295.993 60.28 296.633 60.28H307.103ZM307.013 80.56C307.873 80.56 308.543 80.43 309.023 80.17C309.523 79.91 309.893 79.55 310.133 79.09C310.393 78.61 310.553 78.06 310.613 77.44C310.693 76.82 310.733 76.15 310.733 75.43V69.85C310.733 69.13 310.693 68.46 310.613 67.84C310.553 67.22 310.393 66.68 310.133 66.22C309.893 65.76 309.523 65.4 309.023 65.14C308.543 64.86 307.873 64.72 307.013 64.72H298.702V80.56H307.013ZM327.82 60.28C328.12 60.28 328.33 60.39 328.45 60.61C328.59 60.81 328.66 61.05 328.66 61.33V76.09C328.66 76.73 328.7 77.32 328.78 77.86C328.88 78.4 329.05 78.87 329.29 79.27C329.53 79.67 329.85 79.98 330.25 80.2C330.65 80.42 331.15 80.53 331.75 80.53H341.5C341.8 80.53 342.01 80.64 342.13 80.86C342.27 81.06 342.34 81.3 342.34 81.58V83.95C342.34 84.23 342.27 84.48 342.13 84.7C342.01 84.9 341.8 85 341.5 85H331.6C330.04 85 328.77 84.77 327.79 84.31C326.83 83.83 326.08 83.17 325.54 82.33C325.02 81.49 324.66 80.5 324.46 79.36C324.28 78.2 324.19 76.94 324.19 75.58V61.33C324.19 61.05 324.25 60.81 324.37 60.61C324.51 60.39 324.74 60.28 325.06 60.28H327.82ZM368.219 60.28C368.399 60.28 368.559 60.35 368.699 60.49C368.859 60.61 368.889 60.75 368.789 60.91L359.579 77.41V83.98C359.579 84.26 359.509 84.5 359.369 84.7C359.249 84.9 359.039 85 358.739 85H355.979C355.679 85 355.459 84.9 355.319 84.7C355.199 84.5 355.139 84.26 355.139 83.98V77.41L346.019 60.91C345.919 60.75 345.939 60.61 346.079 60.49C346.219 60.35 346.389 60.28 346.589 60.28H350.009C350.409 60.28 350.699 60.47 350.879 60.85L357.419 72.85L364.019 60.82C364.219 60.46 364.509 60.28 364.889 60.28H368.219Z" fill="#55FFCC"/>
<path d="M181.89 60.61L181.012 61.0889L181.039 61.1378L181.071 61.1835L181.89 60.61ZM181.89 64.42L181.071 63.8465L181.051 63.8753L181.033 63.9055L181.89 64.42ZM163.38 64.39L162.502 64.8689L162.502 64.8689L163.38 64.39ZM163.38 60.64L164.258 61.1189L164.266 61.1032L164.274 61.0872L163.38 60.64ZM181.74 70.66L180.862 71.1389L180.889 71.1878L180.921 71.2335L181.74 70.66ZM181.74 74.47L180.921 73.8965L180.901 73.9253L180.883 73.9555L181.74 74.47ZM167.7 74.77V73.77H166.7V74.77H167.7ZM167.52 84.7L168.377 85.2145L168.388 85.1969L168.398 85.1789L167.52 84.7ZM163.44 84.7L162.562 85.1789L162.589 85.2278L162.621 85.2735L163.44 84.7ZM163.86 70.99L163.137 70.2995L163.136 70.3003L163.86 70.99ZM181.26 60.28V61.28C181.29 61.28 181.25 61.2856 181.178 61.2483C181.143 61.2297 181.107 61.2042 181.076 61.1727C181.045 61.1416 181.024 61.1115 181.012 61.0889L181.89 60.61L182.768 60.1311C182.435 59.5207 181.84 59.28 181.26 59.28V60.28ZM181.89 60.61L181.071 61.1835C181.076 61.1915 181.1 61.224 181.1 61.33H182.1H183.1C183.1 60.876 182.984 60.4285 182.709 60.0365L181.89 60.61ZM182.1 61.33H181.1V63.7H182.1H183.1V61.33H182.1ZM182.1 63.7H181.1C181.1 63.806 181.076 63.8385 181.071 63.8465L181.89 64.42L182.709 64.9935C182.984 64.6015 183.1 64.154 183.1 63.7H182.1ZM181.89 64.42L181.033 63.9055C181.05 63.8756 181.076 63.8425 181.11 63.8113C181.145 63.7801 181.18 63.7574 181.213 63.7421C181.275 63.7125 181.303 63.72 181.26 63.72V64.72V65.72C181.796 65.72 182.395 65.5228 182.747 64.9345L181.89 64.42ZM181.26 64.72V63.72H164.01V64.72V65.72H181.26V64.72ZM164.01 64.72V63.72C163.98 63.72 164.02 63.7144 164.092 63.7517C164.127 63.7703 164.163 63.7958 164.194 63.8273C164.225 63.8584 164.246 63.8885 164.258 63.9111L163.38 64.39L162.502 64.8689C162.835 65.4793 163.43 65.72 164.01 65.72V64.72ZM163.38 64.39L164.258 63.9111C164.221 63.8437 164.2 63.7692 164.2 63.67H163.2H162.2C162.2 64.0908 162.299 64.4963 162.502 64.8689L163.38 64.39ZM163.2 63.67H164.2V61.36H163.2H162.2V63.67H163.2ZM163.2 61.36H164.2C164.2 61.2608 164.221 61.1863 164.258 61.1189L163.38 60.64L162.502 60.1611C162.299 60.5337 162.2 60.9392 162.2 61.36H163.2ZM163.38 60.64L164.274 61.0872C164.256 61.1237 164.209 61.1897 164.124 61.2382C164.045 61.283 163.993 61.28 164.01 61.28V60.28V59.28C163.727 59.28 163.42 59.337 163.131 59.5018C162.836 59.6703 162.624 59.9163 162.486 60.1928L163.38 60.64ZM164.01 60.28V61.28H181.26V60.28V59.28H164.01V60.28ZM181.11 70.33V71.33C181.14 71.33 181.1 71.3356 181.028 71.2983C180.993 71.2797 180.957 71.2542 180.926 71.2227C180.895 71.1916 180.874 71.1615 180.862 71.1389L181.74 70.66L182.618 70.1811C182.285 69.5707 181.69 69.33 181.11 69.33V70.33ZM181.74 70.66L180.921 71.2335C180.926 71.2415 180.95 71.274 180.95 71.38H181.95H182.95C182.95 70.926 182.834 70.4785 182.559 70.0865L181.74 70.66ZM181.95 71.38H180.95V73.75H181.95H182.95V71.38H181.95ZM181.95 73.75H180.95C180.95 73.856 180.926 73.8885 180.921 73.8965L181.74 74.47L182.559 75.0435C182.834 74.6515 182.95 74.204 182.95 73.75H181.95ZM181.74 74.47L180.883 73.9555C180.9 73.9256 180.926 73.8925 180.96 73.8613C180.995 73.8301 181.03 73.8074 181.063 73.7921C181.125 73.7625 181.153 73.77 181.11 73.77V74.77V75.77C181.646 75.77 182.245 75.5728 182.597 74.9845L181.74 74.47ZM181.11 74.77V73.77H167.7V74.77V75.77H181.11V74.77ZM167.7 74.77H166.7V83.95H167.7H168.7V74.77H167.7ZM167.7 83.95H166.7C166.7 84.0827 166.673 84.1646 166.642 84.2211L167.52 84.7L168.398 85.1789C168.607 84.7954 168.7 84.3773 168.7 83.95H167.7ZM167.52 84.7L166.663 84.1855C166.684 84.15 166.713 84.1138 166.75 84.0814C166.786 84.0493 166.822 84.0279 166.851 84.0146C166.906 83.9897 166.921 84 166.86 84V85V86C167.385 86 168.013 85.8228 168.377 85.2145L167.52 84.7ZM166.86 85V84H164.1V85V86H166.86V85ZM164.1 85V84C164.059 84 164.076 83.9931 164.124 84.0146C164.148 84.0255 164.174 84.0415 164.2 84.063C164.226 84.0846 164.246 84.107 164.259 84.1265L163.44 84.7L162.621 85.2735C162.992 85.8032 163.558 86 164.1 86V85ZM163.44 84.7L164.318 84.2211C164.287 84.1646 164.26 84.0827 164.26 83.95H163.26H162.26C162.26 84.3773 162.353 84.7954 162.562 85.1789L163.44 84.7ZM163.26 83.95H164.26V72.37H163.26H162.26V83.95H163.26ZM163.26 72.37H164.26C164.26 72.1677 164.331 71.9457 164.584 71.6797L163.86 70.99L163.136 70.3003C162.589 70.8743 162.26 71.5723 162.26 72.37H163.26ZM163.86 70.99L164.583 71.6805C164.77 71.4851 165.071 71.33 165.63 71.33V70.33V69.33C164.669 69.33 163.79 69.6149 163.137 70.2995L163.86 70.99ZM165.63 70.33V71.33H181.11V70.33V69.33H165.63V70.33ZM206.887 74.71L206.763 73.7177L205.157 73.9184L206.055 75.2647L206.887 74.71ZM207.517 75.76L206.651 76.2597L206.655 76.2671L206.66 76.2745L207.517 75.76ZM208.567 77.53L207.705 78.0371L207.712 78.0483L208.567 77.53ZM209.797 79.63L208.927 80.1236L208.935 80.1377L208.944 80.1514L209.797 79.63ZM210.997 81.7L210.119 82.1789L210.128 82.1949L210.137 82.2105L210.997 81.7ZM211.897 83.35L210.995 83.7815L211.006 83.8055L211.019 83.8289L211.897 83.35ZM207.697 84.88L207.116 85.6937L207.157 85.7231L207.201 85.7482L207.697 84.88ZM207.307 84.4L208.185 83.9211L208.181 83.9144L208.177 83.9077L207.307 84.4ZM201.877 74.8L202.747 74.3077L202.46 73.8H201.877V74.8ZM195.547 74.8V73.8H194.547V74.8H195.547ZM195.337 84.7L194.493 84.1631L194.486 84.1742L194.48 84.1855L195.337 84.7ZM191.317 84.7L190.473 85.2369L190.485 85.2554L190.498 85.2735L191.317 84.7ZM191.287 70.66L190.468 70.0865L190.448 70.1153L190.43 70.1455L191.287 70.66ZM206.107 70.15L206.581 71.0305L206.592 71.0245L206.603 71.0182L206.107 70.15ZM206.737 69.52L205.857 69.0459L205.857 69.0459L206.737 69.52ZM207.007 68.62L206.022 68.4462L206.017 68.4746L206.014 68.5032L207.007 68.62ZM207.007 66.46L206.014 66.5768L206.017 66.6054L206.022 66.6338L207.007 66.46ZM206.737 65.56L205.857 66.0341L205.857 66.0341L206.737 65.56ZM206.107 64.96L205.583 65.8117L205.62 65.8347L205.66 65.8544L206.107 64.96ZM191.287 64.42L190.43 64.9345L190.448 64.9647L190.468 64.9935L191.287 64.42ZM191.287 60.61L190.443 60.0731L190.436 60.0842L190.43 60.0955L191.287 60.61ZM208.627 60.85L209.084 59.9604H209.084L208.627 60.85ZM210.367 62.41L209.523 62.9469L209.529 62.9558L209.535 62.9647L210.367 62.41ZM211.297 64.72L210.317 64.9204L211.297 64.72ZM211.357 70.03L210.371 69.8617L210.37 69.8717L210.368 69.8817L211.357 70.03ZM210.637 72.22L209.759 71.7411L209.754 71.7508L210.637 72.22ZM209.227 73.87L209.818 74.6764L209.827 74.6701L209.835 74.6636L209.227 73.87ZM206.887 74.71L206.055 75.2647C206.154 75.4138 206.349 75.7367 206.651 76.2597L207.517 75.76L208.383 75.2603C208.085 74.7433 207.86 74.3662 207.719 74.1553L206.887 74.71ZM207.517 75.76L206.66 76.2745C206.958 76.7713 207.306 77.3587 207.705 78.037L208.567 77.53L209.429 77.023C209.028 76.3413 208.676 75.7487 208.375 75.2455L207.517 75.76ZM208.567 77.53L207.712 78.0483C208.106 78.6994 208.512 79.3911 208.927 80.1236L209.797 79.63L210.667 79.1364C210.242 78.3889 209.828 77.6806 209.422 77.0117L208.567 77.53ZM209.797 79.63L208.944 80.1514C209.376 80.8591 209.768 81.5349 210.119 82.1789L210.997 81.7L211.875 81.2211C211.506 80.5451 211.098 79.8409 210.65 79.1086L209.797 79.63ZM210.997 81.7L210.137 82.2105C210.508 82.8354 210.792 83.3576 210.995 83.7815L211.897 83.35L212.799 82.9185C212.562 82.4224 212.246 81.8447 211.857 81.1895L210.997 81.7ZM211.897 83.35L211.019 83.8289C211.132 84.0364 211.206 84.1853 211.248 84.2839C211.258 84.3073 211.265 84.3254 211.27 84.3386C211.275 84.3521 211.277 84.358 211.277 84.3573C211.277 84.3568 211.276 84.3537 211.274 84.3482C211.273 84.3427 211.271 84.3338 211.269 84.3218C211.265 84.3009 211.257 84.2542 211.257 84.19H212.257H213.257C213.257 83.8998 213.142 83.6252 213.086 83.4961C213.008 83.3147 212.902 83.1036 212.775 82.8711L211.897 83.35ZM212.257 84.19H211.257C211.257 84.2242 211.253 84.2403 211.252 84.243C211.252 84.2444 211.252 84.2434 211.254 84.2405C211.255 84.2375 211.257 84.2339 211.259 84.23L212.107 84.76L212.955 85.29C213.17 84.9462 213.257 84.5658 213.257 84.19H212.257ZM212.107 84.76L211.259 84.23C211.32 84.1332 211.407 84.0634 211.491 84.0262C211.563 83.9943 211.6 84 211.567 84V85V86C212.027 86 212.607 85.8468 212.955 85.29L212.107 84.76ZM211.567 85V84H208.267V85V86H211.567V85ZM208.267 85V84C208.201 84 208.164 83.9943 208.151 83.9915C208.137 83.9887 208.157 83.9908 208.193 84.0118L207.697 84.88L207.201 85.7482C207.548 85.9467 207.932 86 208.267 86V85ZM207.697 84.88L208.278 84.0663C208.294 84.0774 208.29 84.0782 208.271 84.0544C208.251 84.0306 208.222 83.9886 208.185 83.9211L207.307 84.4L206.429 84.8789C206.591 85.1755 206.81 85.4752 207.116 85.6937L207.697 84.88ZM207.307 84.4L208.177 83.9077L202.747 74.3077L201.877 74.8L201.007 75.2923L206.437 84.8923L207.307 84.4ZM201.877 74.8V73.8H195.547V74.8V75.8H201.877V74.8ZM195.547 74.8H194.547V83.95H195.547H196.547V74.8H195.547ZM195.547 83.95H194.547C194.547 84.0545 194.524 84.1155 194.493 84.1631L195.337 84.7L196.181 85.2369C196.43 84.8445 196.547 84.4055 196.547 83.95H195.547ZM195.337 84.7L194.48 84.1855C194.497 84.1556 194.523 84.1225 194.557 84.0913C194.592 84.0601 194.627 84.0374 194.66 84.0221C194.722 83.9925 194.75 84 194.707 84V85V86C195.243 86 195.842 85.8028 196.195 85.2145L195.337 84.7ZM194.707 85V84H191.977V85V86H194.707V85ZM191.977 85V84C191.936 84 191.953 83.9931 192.001 84.0146C192.025 84.0255 192.051 84.0415 192.077 84.063C192.103 84.0846 192.123 84.107 192.136 84.1265L191.317 84.7L190.498 85.2735C190.869 85.8032 191.435 86 191.977 86V85ZM191.317 84.7L192.161 84.1631C192.13 84.1155 192.107 84.0545 192.107 83.95H191.107H190.107C190.107 84.4055 190.224 84.8445 190.473 85.2369L191.317 84.7ZM191.107 83.95H192.107V71.38H191.107H190.107V83.95H191.107ZM191.107 71.38H192.107C192.107 71.2447 192.135 71.1905 192.145 71.1745L191.287 70.66L190.43 70.1455C190.199 70.5295 190.107 70.9552 190.107 71.38H191.107ZM191.287 70.66L192.106 71.2335C192.089 71.2578 192.067 71.2829 192.039 71.3055C192.011 71.328 191.984 71.3429 191.963 71.3521C191.923 71.3696 191.918 71.36 191.977 71.36V70.36V69.36C191.443 69.36 190.851 69.539 190.468 70.0865L191.287 70.66ZM191.977 70.36V71.36H205.027V70.36V69.36H191.977V70.36ZM205.027 70.36V71.36C205.569 71.36 206.116 71.2808 206.581 71.0305L206.107 70.15L205.633 69.2695C205.578 69.2992 205.405 69.36 205.027 69.36V70.36ZM206.107 70.15L206.603 71.0182C207.03 70.7743 207.381 70.4339 207.618 69.9941L206.737 69.52L205.857 69.0459C205.813 69.1261 205.744 69.2057 205.611 69.2818L206.107 70.15ZM206.737 69.52L207.618 69.9941C207.826 69.607 207.948 69.1823 208 68.7368L207.007 68.62L206.014 68.5032C205.986 68.7377 205.928 68.913 205.857 69.0459L206.737 69.52ZM207.007 68.62L207.992 68.7938C208.063 68.391 208.097 67.9725 208.097 67.54H207.097H206.097C206.097 67.8675 206.071 68.169 206.022 68.4462L207.007 68.62ZM207.097 67.54H208.097C208.097 67.1075 208.063 66.689 207.992 66.2862L207.007 66.46L206.022 66.6338C206.071 66.911 206.097 67.2125 206.097 67.54H207.097ZM207.007 66.46L208 66.3432C207.948 65.8977 207.826 65.473 207.618 65.0859L206.737 65.56L205.857 66.0341C205.928 66.167 205.986 66.3423 206.014 66.5768L207.007 66.46ZM206.737 65.56L207.618 65.0859C207.374 64.6333 207.007 64.2918 206.554 64.0656L206.107 64.96L205.66 65.8544C205.767 65.9082 205.82 65.9667 205.857 66.0341L206.737 65.56ZM206.107 64.96L206.631 64.1083C206.153 63.8141 205.585 63.72 205.027 63.72V64.72V65.72C205.389 65.72 205.541 65.7859 205.583 65.8117L206.107 64.96ZM205.027 64.72V63.72H191.977V64.72V65.72H205.027V64.72ZM191.977 64.72V63.72C191.918 63.72 191.923 63.7104 191.963 63.7279C191.984 63.7371 192.011 63.752 192.039 63.7745C192.067 63.7971 192.089 63.8222 192.106 63.8465L191.287 64.42L190.468 64.9935C190.851 65.541 191.443 65.72 191.977 65.72V64.72ZM191.287 64.42L192.145 63.9055C192.135 63.8895 192.107 63.8352 192.107 63.7H191.107H190.107C190.107 64.1247 190.199 64.5505 190.43 64.9345L191.287 64.42ZM191.107 63.7H192.107V61.33H191.107H190.107V63.7H191.107ZM191.107 61.33H192.107C192.107 61.1947 192.135 61.1405 192.145 61.1245L191.287 60.61L190.43 60.0955C190.199 60.4795 190.107 60.9052 190.107 61.33H191.107ZM191.287 60.61L192.131 61.1469C192.119 61.1655 192.1 61.1888 192.075 61.2119C192.048 61.2352 192.021 61.2526 191.996 61.2646C191.946 61.2883 191.929 61.28 191.977 61.28V60.28V59.28C191.404 59.28 190.81 59.4966 190.443 60.0731L191.287 60.61ZM191.977 60.28V61.28H205.807V60.28V59.28H191.977V60.28ZM205.807 60.28V61.28C206.844 61.28 207.614 61.454 208.17 61.7396L208.627 60.85L209.084 59.9604C208.16 59.486 207.05 59.28 205.807 59.28V60.28ZM208.627 60.85L208.17 61.7396C208.763 62.0438 209.205 62.4463 209.523 62.9469L210.367 62.41L211.211 61.8731C210.689 61.0537 209.971 60.4162 209.084 59.9604L208.627 60.85ZM210.367 62.41L209.535 62.9647C209.894 63.5039 210.16 64.1503 210.317 64.9204L211.297 64.72L212.277 64.5196C212.074 63.5297 211.72 62.6361 211.199 61.8553L210.367 62.41ZM211.297 64.72L210.317 64.9204C210.482 65.7275 210.567 66.5998 210.567 67.54H211.567H212.567C212.567 66.4802 212.472 65.4725 212.277 64.5196L211.297 64.72ZM211.567 67.54H210.567C210.567 68.3242 210.502 69.0978 210.371 69.8617L211.357 70.03L212.343 70.1983C212.492 69.3222 212.567 68.4358 212.567 67.54H211.567ZM211.357 70.03L210.368 69.8817C210.264 70.5747 210.059 71.1915 209.759 71.7411L210.637 72.22L211.515 72.6989C211.935 71.9285 212.21 71.0853 212.346 70.1783L211.357 70.03ZM210.637 72.22L209.754 71.7508C209.484 72.2588 209.11 72.6997 208.619 73.0764L209.227 73.87L209.835 74.6636C210.544 74.1203 211.11 73.4612 211.52 72.6892L210.637 72.22ZM209.227 73.87L208.636 73.0636C208.208 73.377 207.603 73.6127 206.763 73.7177L206.887 74.71L207.011 75.7023C208.091 75.5673 209.046 75.243 209.818 74.6764L209.227 73.87ZM225.058 60.46L225.537 59.5821V59.5821L225.058 60.46ZM225.058 84.85L225.537 85.7279L225.058 84.85ZM221.278 84.85L220.799 85.7279L221.278 84.85ZM221.278 60.46L220.799 59.5821L221.278 60.46ZM224.548 60.28V61.28C224.496 61.28 224.46 61.2737 224.444 61.2705C224.428 61.2672 224.424 61.2649 224.432 61.268C224.441 61.2709 224.457 61.2773 224.483 61.2892C224.508 61.301 224.54 61.3169 224.579 61.3379L225.058 60.46L225.537 59.5821C225.297 59.4513 224.936 59.28 224.548 59.28V60.28ZM225.058 60.46L224.579 61.3379C224.512 61.3017 224.46 61.255 224.423 61.2089C224.388 61.165 224.374 61.131 224.37 61.1222C224.367 61.114 224.372 61.1247 224.378 61.162C224.383 61.1988 224.388 61.2537 224.388 61.33H225.388H226.388C226.388 60.8103 226.278 59.9866 225.537 59.5821L225.058 60.46ZM225.388 61.33H224.388V83.98H225.388H226.388V61.33H225.388ZM225.388 83.98H224.388C224.388 84.0563 224.383 84.1112 224.378 84.148C224.372 84.1853 224.367 84.196 224.37 84.1878C224.374 84.179 224.388 84.145 224.423 84.1011C224.46 84.055 224.512 84.0083 224.579 83.9721L225.058 84.85L225.537 85.7279C226.278 85.3234 226.388 84.4997 226.388 83.98H225.388ZM225.058 84.85L224.579 83.9721C224.54 83.9931 224.508 84.009 224.483 84.0208C224.457 84.0327 224.441 84.0391 224.432 84.042C224.424 84.0451 224.428 84.0428 224.444 84.0395C224.46 84.0363 224.496 84.03 224.548 84.03V85.03V86.03C224.936 86.03 225.297 85.8587 225.537 85.7279L225.058 84.85ZM224.548 85.03V84.03H221.788V85.03V86.03H224.548V85.03ZM221.788 85.03V84.03C221.839 84.03 221.875 84.0363 221.891 84.0395C221.907 84.0428 221.912 84.0451 221.903 84.042C221.895 84.0391 221.878 84.0327 221.852 84.0208C221.827 84.009 221.795 83.9931 221.757 83.9721L221.278 84.85L220.799 85.7279C221.039 85.8587 221.399 86.03 221.788 86.03V85.03ZM221.278 84.85L221.757 83.9721C221.823 84.0083 221.875 84.055 221.912 84.1011C221.948 84.145 221.962 84.179 221.965 84.1878C221.968 84.196 221.963 84.1853 221.958 84.148C221.952 84.1112 221.948 84.0563 221.948 83.98H220.948H219.948C219.948 84.4997 220.057 85.3234 220.799 85.7279L221.278 84.85ZM220.948 83.98H221.948V61.33H220.948H219.948V83.98H220.948ZM220.948 61.33H221.948C221.948 61.2537 221.952 61.1988 221.958 61.162C221.963 61.1247 221.968 61.114 221.965 61.1222C221.962 61.131 221.948 61.165 221.912 61.2089C221.875 61.255 221.823 61.3017 221.757 61.3379L221.278 60.46L220.799 59.5821C220.057 59.9866 219.948 60.8103 219.948 61.33H220.948ZM221.278 60.46L221.757 61.3379C221.795 61.3169 221.827 61.301 221.852 61.2892C221.878 61.2773 221.895 61.2709 221.903 61.268C221.912 61.2649 221.907 61.2672 221.891 61.2705C221.875 61.2737 221.839 61.28 221.788 61.28V60.28V59.28C221.399 59.28 221.039 59.4513 220.799 59.5821L221.278 60.46ZM221.788 60.28V61.28H224.548V60.28V59.28H221.788V60.28ZM235.003 64.57L234.489 65.4275L234.537 65.4568L234.589 65.4804L235.003 64.57ZM235.003 60.46L234.524 59.5821L234.506 59.5919L234.489 59.6025L235.003 60.46ZM239.983 79.96L239.373 80.7526L239.381 80.7582L239.388 80.7636L239.983 79.96ZM253.393 80.86L252.536 81.3745L252.554 81.4047L252.574 81.4335L253.393 80.86ZM253.393 84.7L252.574 84.1265L252.554 84.1553L252.536 84.1855L253.393 84.7ZM238.483 84.4L238.075 85.313L238.087 85.3182L238.099 85.3231L238.483 84.4ZM236.233 82.63L237.038 82.0368L236.233 82.63ZM235.033 79.9L234.053 80.0996L234.055 80.1102L234.058 80.1208L235.033 79.9ZM234.823 71.62L235.772 71.9362L235.775 71.9252L235.779 71.9141L234.823 71.62ZM235.213 70.96L235.92 71.6671L235.213 70.96ZM235.963 70.48L235.612 69.5437L235.602 69.5475L235.592 69.5515L235.963 70.48ZM253.243 70.6L252.386 71.1145L252.404 71.1447L252.424 71.1735L253.243 70.6ZM253.243 74.44L252.399 73.9031L252.392 73.9142L252.386 73.9255L253.243 74.44ZM239.203 74.74V73.74H238.203V74.74H239.203ZM252.763 60.28V61.28C252.711 61.28 252.675 61.2737 252.66 61.2705C252.644 61.2672 252.639 61.2649 252.648 61.268C252.656 61.2709 252.673 61.2773 252.698 61.2892C252.724 61.301 252.756 61.3169 252.794 61.3379L253.273 60.46L253.752 59.5821C253.512 59.4513 253.152 59.28 252.763 59.28V60.28ZM253.273 60.46L252.794 61.3379C252.728 61.3017 252.676 61.255 252.638 61.2089C252.603 61.165 252.589 61.131 252.586 61.1222C252.583 61.114 252.588 61.1247 252.593 61.162C252.598 61.1988 252.603 61.2537 252.603 61.33H253.603H254.603C254.603 60.8103 254.493 59.9866 253.752 59.5821L253.273 60.46ZM253.603 61.33H252.603V63.67H253.603H254.603V61.33H253.603ZM253.603 63.67H252.603C252.603 63.7463 252.598 63.8012 252.593 63.838C252.588 63.8753 252.583 63.886 252.586 63.8778C252.589 63.869 252.603 63.835 252.638 63.7911C252.676 63.745 252.728 63.6983 252.794 63.6621L253.273 64.54L253.752 65.4179C254.493 65.0134 254.603 64.1897 254.603 63.67H253.603ZM253.273 64.54L252.794 63.6621C252.756 63.6831 252.724 63.699 252.698 63.7108C252.673 63.7227 252.656 63.7291 252.648 63.732C252.639 63.7351 252.644 63.7328 252.66 63.7295C252.675 63.7263 252.711 63.72 252.763 63.72V64.72V65.72C253.152 65.72 253.512 65.5487 253.752 65.4179L253.273 64.54ZM252.763 64.72V63.72H235.513V64.72V65.72H252.763V64.72ZM235.513 64.72V63.72C235.551 63.72 235.576 63.7238 235.584 63.7252C235.592 63.7266 235.591 63.7269 235.578 63.7231C235.551 63.7151 235.498 63.6967 235.417 63.6596L235.003 64.57L234.589 65.4804C234.834 65.5915 235.168 65.72 235.513 65.72V64.72ZM235.003 64.57L235.518 63.7125C235.592 63.757 235.645 63.8109 235.679 63.8576C235.711 63.9018 235.722 63.9334 235.723 63.9365C235.725 63.9395 235.719 63.9233 235.713 63.881C235.708 63.8392 235.703 63.7799 235.703 63.7H234.703H233.703C233.703 63.9912 233.733 64.3001 233.833 64.5885C233.935 64.8849 234.131 65.2128 234.489 65.4275L235.003 64.57ZM234.703 63.7H235.703V61.36H234.703H233.703V63.7H234.703ZM234.703 61.36H235.703C235.703 61.2736 235.708 61.2082 235.714 61.1609C235.717 61.1376 235.72 61.1203 235.722 61.1084C235.725 61.0964 235.727 61.091 235.727 61.0912C235.727 61.0914 235.724 61.0986 235.718 61.1111C235.712 61.1236 235.702 61.1424 235.686 61.165C235.652 61.2122 235.597 61.2697 235.518 61.3175L235.003 60.46L234.489 59.6025C234.121 59.823 233.928 60.1632 233.829 60.4588C233.733 60.7491 233.703 61.0622 233.703 61.36H234.703ZM235.003 60.46L235.482 61.3379C235.521 61.3169 235.552 61.301 235.578 61.2892C235.604 61.2773 235.62 61.2709 235.628 61.268C235.637 61.2649 235.633 61.2672 235.616 61.2705C235.601 61.2737 235.565 61.28 235.513 61.28V60.28V59.28C235.124 59.28 234.764 59.4513 234.524 59.5821L235.003 60.46ZM235.513 60.28V61.28H252.763V60.28V59.28H235.513V60.28ZM239.203 77.83H238.203C238.203 78.9854 238.496 80.0774 239.373 80.7526L239.983 79.96L240.593 79.1674C240.431 79.0426 240.203 78.7146 240.203 77.83H239.203ZM239.983 79.96L239.388 80.7636C240.154 81.3307 241.116 81.56 242.173 81.56V80.56V79.56C241.39 79.56 240.893 79.3893 240.578 79.1564L239.983 79.96ZM242.173 80.56V81.56H252.733V80.56V79.56H242.173V80.56ZM252.733 80.56V81.56C252.794 81.56 252.779 81.5703 252.724 81.5454C252.695 81.5321 252.659 81.5107 252.623 81.4786C252.586 81.4462 252.557 81.41 252.536 81.3745L253.393 80.86L254.251 80.3455C253.886 79.7372 253.258 79.56 252.733 79.56V80.56ZM253.393 80.86L252.574 81.4335C252.58 81.4415 252.603 81.474 252.603 81.58H253.603H254.603C254.603 81.126 254.487 80.6785 254.212 80.2865L253.393 80.86ZM253.603 81.58H252.603V83.98H253.603H254.603V81.58H253.603ZM253.603 83.98H252.603C252.603 84.086 252.58 84.1185 252.574 84.1265L253.393 84.7L254.212 85.2735C254.487 84.8815 254.603 84.434 254.603 83.98H253.603ZM253.393 84.7L252.536 84.1855C252.557 84.15 252.586 84.1138 252.623 84.0814C252.659 84.0493 252.695 84.0279 252.724 84.0146C252.779 83.9897 252.794 84 252.733 84V85V86C253.258 86 253.886 85.8228 254.251 85.2145L253.393 84.7ZM252.733 85V84H242.083V85V86H252.733V85ZM242.083 85V84C240.728 84 239.669 83.8106 238.868 83.4769L238.483 84.4L238.099 85.3231C239.218 85.7894 240.558 86 242.083 86V85ZM238.483 84.4L238.891 83.487C238.094 83.1309 237.487 82.6453 237.038 82.0368L236.233 82.63L235.428 83.2232C236.1 84.1347 236.992 84.8291 238.075 85.313L238.483 84.4ZM236.233 82.63L237.038 82.0368C236.571 81.4034 236.223 80.6249 236.008 79.6792L235.033 79.9L234.058 80.1208C234.324 81.2951 234.775 82.3366 235.428 83.2232L236.233 82.63ZM235.033 79.9L236.013 79.7004C235.809 78.6975 235.703 77.5657 235.703 76.3H234.703H233.703C233.703 77.6743 233.818 78.9425 234.053 80.0996L235.033 79.9ZM234.703 76.3H235.703V72.34H234.703H233.703V76.3H234.703ZM234.703 72.34H235.703C235.703 72.2132 235.724 72.0798 235.772 71.9362L234.823 71.62L233.874 71.3038C233.762 71.6402 233.703 71.9868 233.703 72.34H234.703ZM234.823 71.62L235.779 71.9141C235.814 71.799 235.863 71.7239 235.92 71.6671L235.213 70.96L234.506 70.2529C234.203 70.5561 233.992 70.921 233.867 71.3259L234.823 71.62ZM235.213 70.96L235.92 71.6671C236.012 71.5756 236.142 71.4853 236.335 71.4085L235.963 70.48L235.592 69.5515C235.184 69.7147 234.814 69.9444 234.506 70.2529L235.213 70.96ZM235.963 70.48L236.314 71.4163C236.491 71.3502 236.754 71.3 237.133 71.3V70.3V69.3C236.592 69.3 236.076 69.3698 235.612 69.5437L235.963 70.48ZM237.133 70.3V71.3H252.613V70.3V69.3H237.133V70.3ZM252.613 70.3V71.3C252.656 71.3 252.628 71.3076 252.566 71.2779C252.534 71.2626 252.498 71.2399 252.464 71.2087C252.429 71.1775 252.404 71.1444 252.386 71.1145L253.243 70.6L254.101 70.0855C253.748 69.4972 253.149 69.3 252.613 69.3V70.3ZM253.243 70.6L252.424 71.1735C252.43 71.1815 252.453 71.214 252.453 71.32H253.453H254.453C254.453 70.866 254.337 70.4185 254.062 70.0265L253.243 70.6ZM253.453 71.32H252.453V73.69H253.453H254.453V71.32H253.453ZM253.453 73.69H252.453C252.453 73.7945 252.43 73.8555 252.399 73.9031L253.243 74.44L254.087 74.9769C254.336 74.5845 254.453 74.1455 254.453 73.69H253.453ZM253.243 74.44L252.386 73.9255C252.404 73.8956 252.429 73.8625 252.464 73.8313C252.498 73.8001 252.534 73.7774 252.566 73.7621C252.628 73.7325 252.656 73.74 252.613 73.74V74.74V75.74C253.149 75.74 253.748 75.5428 254.101 74.9545L253.243 74.44ZM252.613 74.74V73.74H239.203V74.74V75.74H252.613V74.74ZM239.203 74.74H238.203V77.83H239.203H240.203V74.74H239.203ZM284.464 60.61L283.586 61.0889L283.613 61.1378L283.645 61.1835L284.464 60.61ZM284.584 82.51L285.575 82.6393L284.584 82.51ZM284.134 83.77L283.288 83.236L283.284 83.2422L283.28 83.2486L284.134 83.77ZM283.114 84.67L283.545 85.5721L283.561 85.5646L283.576 85.5566L283.114 84.67ZM279.754 84.97L279.706 85.9689L279.754 84.97ZM278.584 84.73L278.203 85.6547L278.212 85.6584L278.221 85.662L278.584 84.73ZM277.624 84.07L278.331 83.3629H278.331L277.624 84.07ZM276.724 82.81L277.598 82.3243L277.594 82.3165L276.724 82.81ZM267.124 65.89L267.994 65.3965L267.706 64.89H267.124V65.89ZM266.974 65.89V64.89H265.974V65.89H266.974ZM266.764 84.7L265.92 84.1631L265.913 84.1742L265.906 84.1855L266.764 84.7ZM262.804 84.7L261.96 85.2369L261.972 85.2554L261.985 85.2735L262.804 84.7ZM262.654 62.74L261.662 62.6107L261.659 62.632L261.658 62.6534L262.654 62.74ZM263.014 61.51L262.119 61.0628V61.0628L263.014 61.51ZM263.794 60.64L264.337 61.4796L264.354 61.4686L264.37 61.457L263.794 60.64ZM268.624 60.4L268.366 61.3662L268.374 61.3682L268.381 61.3701L268.624 60.4ZM269.404 60.79L268.735 61.5333L268.773 61.5681L268.816 61.5987L269.404 60.79ZM270.004 61.45L270.845 60.9092V60.9092L270.004 61.45ZM270.604 62.47L269.727 62.952L269.733 62.9623L270.604 62.47ZM280.174 79.39L279.303 79.8823L279.59 80.39H280.174V79.39ZM280.324 79.39V80.39H281.324V79.39H280.324ZM280.504 60.61L281.361 61.1245L281.372 61.1069L281.382 61.0889L280.504 60.61ZM283.834 60.28V61.28C283.864 61.28 283.823 61.2856 283.752 61.2483C283.717 61.2297 283.681 61.2042 283.65 61.1727C283.619 61.1416 283.598 61.1115 283.586 61.0889L284.464 60.61L285.342 60.1311C285.009 59.5207 284.414 59.28 283.834 59.28V60.28ZM284.464 60.61L283.645 61.1835C283.65 61.1915 283.674 61.224 283.674 61.33H284.674H285.674C285.674 60.876 285.557 60.4285 285.283 60.0365L284.464 60.61ZM284.674 61.33H283.674V81.13H284.674H285.674V61.33H284.674ZM284.674 81.13H283.674C283.674 81.5464 283.647 81.9632 283.592 82.3807L284.584 82.51L285.575 82.6393C285.641 82.1368 285.674 81.6336 285.674 81.13H284.674ZM284.584 82.51L283.592 82.3807C283.55 82.7015 283.448 82.9827 283.288 83.236L284.134 83.77L284.979 84.304C285.299 83.7973 285.497 83.2385 285.575 82.6393L284.584 82.51ZM284.134 83.77L283.28 83.2486C283.175 83.4216 282.987 83.6082 282.651 83.7834L283.114 84.67L283.576 85.5566C284.16 85.2518 284.653 84.8384 284.987 84.2915L284.134 83.77ZM283.114 84.67L282.682 83.7679C282.415 83.8959 281.945 84 281.194 84V85V86C282.082 86 282.893 85.8841 283.545 85.5721L283.114 84.67ZM281.194 85V84C280.665 84 280.202 83.9902 279.801 83.9711L279.754 84.97L279.706 85.9689C280.146 85.9898 280.642 86 281.194 86V85ZM279.754 84.97L279.801 83.9711C279.48 83.9558 279.197 83.8955 278.946 83.798L278.584 84.73L278.221 85.662C278.69 85.8445 279.188 85.9442 279.706 85.9689L279.754 84.97ZM278.584 84.73L278.965 83.8053C278.764 83.7227 278.552 83.5838 278.331 83.3629L277.624 84.07L276.917 84.7771C277.296 85.1562 277.724 85.4573 278.203 85.6547L278.584 84.73ZM277.624 84.07L278.331 83.3629C278.119 83.151 277.871 82.8166 277.598 82.3244L276.724 82.81L275.85 83.2956C276.176 83.8834 276.528 84.389 276.917 84.7771L277.624 84.07ZM276.724 82.81L277.594 82.3165L267.994 65.3965L267.124 65.89L266.254 66.3835L275.854 83.3035L276.724 82.81ZM267.124 65.89V64.89H266.974V65.89V66.89H267.124V65.89ZM266.974 65.89H265.974V83.95H266.974H267.974V65.89H266.974ZM266.974 83.95H265.974C265.974 84.0545 265.95 84.1155 265.92 84.1631L266.764 84.7L267.607 85.2369C267.857 84.8445 267.974 84.4055 267.974 83.95H266.974ZM266.764 84.7L265.906 84.1855C265.924 84.1556 265.95 84.1225 265.984 84.0913C266.019 84.0601 266.054 84.0374 266.086 84.0221C266.149 83.9925 266.177 84 266.134 84V85V86C266.67 86 267.268 85.8028 267.621 85.2145L266.764 84.7ZM266.134 85V84H263.464V85V86H266.134V85ZM263.464 85V84C263.423 84 263.44 83.9931 263.488 84.0146C263.511 84.0255 263.538 84.0415 263.564 84.063C263.59 84.0846 263.609 84.107 263.623 84.1265L262.804 84.7L261.985 85.2735C262.355 85.8032 262.922 86 263.464 86V85ZM262.804 84.7L263.647 84.1631C263.617 84.1155 263.594 84.0545 263.594 83.95H262.594H261.594C261.594 84.4055 261.71 84.8445 261.96 85.2369L262.804 84.7ZM262.594 83.95H263.594V64.15H262.594H261.594V83.95H262.594ZM262.594 64.15H263.594C263.594 63.6978 263.613 63.2567 263.65 62.8266L262.654 62.74L261.658 62.6534C261.615 63.1433 261.594 63.6422 261.594 64.15H262.594ZM262.654 62.74L263.645 62.8693C263.693 62.5034 263.785 62.2035 263.908 61.9572L263.014 61.51L262.119 61.0628C261.882 61.5365 261.734 62.0566 261.662 62.6107L262.654 62.74ZM263.014 61.51L263.908 61.9572C264.008 61.7581 264.146 61.6031 264.337 61.4796L263.794 60.64L263.251 59.8004C262.761 60.1169 262.38 60.5419 262.119 61.0628L263.014 61.51ZM263.794 60.64L264.37 61.457C264.487 61.3747 264.721 61.28 265.174 61.28V60.28V59.28C264.466 59.28 263.78 59.4253 263.217 59.823L263.794 60.64ZM265.174 60.28V61.28H267.424V60.28V59.28H265.174V60.28ZM267.424 60.28V61.28C267.883 61.28 268.185 61.318 268.366 61.3662L268.624 60.4L268.881 59.4338C268.462 59.322 267.965 59.28 267.424 59.28V60.28ZM268.624 60.4L268.381 61.3701C268.578 61.4193 268.681 61.4846 268.735 61.5333L269.404 60.79L270.073 60.0467C269.727 59.7354 269.309 59.5407 268.866 59.4299L268.624 60.4ZM269.404 60.79L268.816 61.5987C268.916 61.6716 269.035 61.7924 269.163 61.9908L270.004 61.45L270.845 60.9092C270.612 60.5476 270.332 60.2284 269.992 59.9813L269.404 60.79ZM270.004 61.45L269.163 61.9908C269.327 62.246 269.515 62.5652 269.728 62.9519L270.604 62.47L271.48 61.9881C271.253 61.5748 271.041 61.214 270.845 60.9092L270.004 61.45ZM270.604 62.47L269.733 62.9623L279.303 79.8823L280.174 79.39L281.044 78.8977L271.474 61.9777L270.604 62.47ZM280.174 79.39V80.39H280.324V79.39V78.39H280.174V79.39ZM280.324 79.39H281.324V61.33H280.324H279.324V79.39H280.324ZM280.324 61.33H281.324C281.324 61.1947 281.352 61.1405 281.361 61.1245L280.504 60.61L279.646 60.0955C279.416 60.4795 279.324 60.9052 279.324 61.33H280.324ZM280.504 60.61L281.382 61.0889C281.366 61.117 281.343 61.1505 281.309 61.1832C281.275 61.216 281.239 61.2404 281.206 61.2569C281.142 61.289 281.114 61.28 281.164 61.28V60.28V59.28C280.596 59.28 279.971 59.4978 279.626 60.1311L280.504 60.61ZM281.164 60.28V61.28H283.834V60.28V59.28H281.164V60.28ZM311.092 61.06L310.645 61.9544L310.656 61.9595L310.666 61.9644L311.092 61.06ZM313.583 63.16L312.75 63.7147V63.7147L313.583 63.16ZM314.812 66.34L313.828 66.5175L313.83 66.5253L313.831 66.533L314.812 66.34ZM314.812 78.97L313.831 78.777L313.83 78.7847L313.828 78.7925L314.812 78.97ZM313.583 82.15L314.409 82.7134L314.415 82.7047L313.583 82.15ZM311.092 84.25L311.526 85.1513L311.533 85.1478L311.092 84.25ZM295.973 84.85L295.601 85.7785L295.637 85.7929L295.674 85.8045L295.973 84.85ZM295.133 84.37L294.492 85.1382L294.507 85.1507L294.523 85.1626L295.133 84.37ZM294.503 83.68L293.634 84.1761L293.656 84.2137L293.68 84.2492L294.503 83.68ZM294.952 60.85L295.569 61.6375L295.573 61.634L294.952 60.85ZM309.023 80.17L308.561 79.2828L308.554 79.2867L308.546 79.2907L309.023 80.17ZM310.133 79.09L309.253 78.6137L309.25 78.6205L309.246 78.6274L310.133 79.09ZM310.613 77.44L309.621 77.312L309.619 77.3278L309.617 77.3437L310.613 77.44ZM310.613 67.84L309.617 67.9363L309.619 67.9522L309.621 67.968L310.613 67.84ZM310.133 66.22L309.246 66.6826L309.254 66.6974L309.262 66.7121L310.133 66.22ZM309.023 65.14L308.519 66.0038L308.54 66.016L308.561 66.0272L309.023 65.14ZM298.702 64.72V63.72H297.702V64.72H298.702ZM298.702 80.56H297.702V81.56H298.702V80.56ZM307.102 60.28V61.28C308.625 61.28 309.788 61.5257 310.645 61.9544L311.092 61.06L311.54 60.1656C310.317 59.5543 308.82 59.28 307.102 59.28V60.28ZM311.092 61.06L310.666 61.9644C311.576 62.3936 312.26 62.9785 312.75 63.7147L313.583 63.16L314.415 62.6053C313.705 61.5415 312.729 60.7264 311.519 60.1556L311.092 61.06ZM313.583 63.16L312.75 63.7147C313.264 64.4852 313.629 65.4127 313.828 66.5175L314.812 66.34L315.797 66.1625C315.556 64.8273 315.101 63.6348 314.415 62.6053L313.583 63.16ZM314.812 66.34L313.831 66.533C314.057 67.6812 314.173 68.9359 314.173 70.3H315.173H316.173C316.173 68.8241 316.048 67.4388 315.794 66.147L314.812 66.34ZM315.173 70.3H314.173V74.98H315.173H316.173V70.3H315.173ZM315.173 74.98H314.173C314.173 76.3651 314.057 77.6296 313.831 78.777L314.812 78.97L315.794 79.163C316.048 77.8704 316.173 76.4749 316.173 74.98H315.173ZM314.812 78.97L313.828 78.7925C313.629 79.8973 313.264 80.8248 312.75 81.5953L313.583 82.15L314.415 82.7047C315.101 81.6752 315.556 80.4827 315.797 79.1475L314.812 78.97ZM313.583 82.15L312.756 81.5867C312.264 82.3086 311.574 82.9 310.652 83.3522L311.092 84.25L311.533 85.1478C312.731 84.56 313.701 83.7514 314.409 82.7133L313.583 82.15ZM311.092 84.25L310.659 83.3487C309.798 83.763 308.629 84 307.102 84V85V86C308.816 86 310.307 85.737 311.526 85.1513L311.092 84.25ZM307.102 85V84H296.872V85V86H307.102V85ZM296.872 85V84C296.711 84 296.513 83.9711 296.271 83.8955L295.973 84.85L295.674 85.8045C296.072 85.9289 296.474 86 296.872 86V85ZM295.973 84.85L296.344 83.9215C296.13 83.8362 295.931 83.7222 295.742 83.5774L295.133 84.37L294.523 85.1626C294.854 85.4178 295.215 85.6238 295.601 85.7785L295.973 84.85ZM295.133 84.37L295.773 83.6018C295.603 83.4603 295.454 83.2975 295.325 83.1108L294.503 83.68L293.68 84.2492C293.911 84.5825 294.182 84.8797 294.492 85.1382L295.133 84.37ZM294.503 83.68L295.371 83.1839C295.296 83.0537 295.262 82.9246 295.262 82.78H294.262H293.262C293.262 83.2754 293.389 83.7463 293.634 84.1761L294.503 83.68ZM294.262 82.78H295.262V62.32H294.262H293.262V82.78H294.262ZM294.262 62.32H295.262C295.262 61.9857 295.368 61.7949 295.569 61.6375L294.952 60.85L294.336 60.0625C293.617 60.6251 293.262 61.4143 293.262 62.32H294.262ZM294.952 60.85L295.573 61.634C295.868 61.4006 296.207 61.28 296.633 61.28V60.28V59.28C295.778 59.28 294.997 59.5394 294.332 60.066L294.952 60.85ZM296.633 60.28V61.28H307.102V60.28V59.28H296.633V60.28ZM307.012 80.56V81.56C307.952 81.56 308.812 81.4214 309.499 81.0493L309.023 80.17L308.546 79.2907C308.273 79.4386 307.793 79.56 307.012 79.56V80.56ZM309.023 80.17L309.484 81.0572C310.149 80.7112 310.676 80.2102 311.019 79.5526L310.133 79.09L309.246 78.6274C309.109 78.8898 308.896 79.1088 308.561 79.2828L309.023 80.17ZM310.133 79.09L311.012 79.5663C311.344 78.9532 311.537 78.2708 311.608 77.5363L310.613 77.44L309.617 77.3437C309.568 77.8492 309.441 78.2668 309.253 78.6137L310.133 79.09ZM310.613 77.44L311.604 77.568C311.691 76.8997 311.732 76.1865 311.732 75.43H310.732H309.732C309.732 76.1135 309.695 76.7403 309.621 77.312L310.613 77.44ZM310.732 75.43H311.732V69.85H310.732H309.732V75.43H310.732ZM310.732 69.85H311.732C311.732 69.0935 311.691 68.3803 311.604 67.712L310.613 67.84L309.621 67.968C309.695 68.5397 309.732 69.1665 309.732 69.85H310.732ZM310.613 67.84L311.608 67.7437C311.537 67.0091 311.343 66.3295 311.003 65.7279L310.133 66.22L309.262 66.7121C309.442 67.0305 309.568 67.4309 309.617 67.9363L310.613 67.84ZM310.133 66.22L311.019 65.7574C310.676 65.0998 310.149 64.5988 309.484 64.2528L309.023 65.14L308.561 66.0272C308.896 66.2012 309.109 66.4202 309.246 66.6826L310.133 66.22ZM309.023 65.14L309.526 64.2762C308.832 63.871 307.961 63.72 307.012 63.72V64.72V65.72C307.784 65.72 308.253 65.849 308.519 66.0038L309.023 65.14ZM307.012 64.72V63.72H298.702V64.72V65.72H307.012V64.72ZM298.702 64.72H297.702V80.56H298.702H299.702V64.72H298.702ZM298.702 80.56V81.56H307.012V80.56V79.56H298.702V80.56ZM328.45 60.61L327.572 61.0889L327.599 61.1378L327.631 61.1835L328.45 60.61ZM328.78 77.86L327.791 78.0065L327.793 78.0244L327.797 78.0421L328.78 77.86ZM329.29 79.27L328.432 79.7845L329.29 79.27ZM330.25 80.2L330.732 79.3238L330.25 80.2ZM342.13 80.86L341.252 81.3389L341.279 81.3878L341.311 81.4335L342.13 80.86ZM342.13 84.7L341.286 84.1631L341.279 84.1742L341.272 84.1855L342.13 84.7ZM327.79 84.31L327.343 85.2044L327.354 85.21L327.365 85.2152L327.79 84.31ZM325.54 82.33L324.69 82.8564L324.694 82.8636L324.699 82.8708L325.54 82.33ZM324.46 79.36L323.472 79.5133L323.473 79.5231L323.475 79.5328L324.46 79.36ZM324.37 60.61L323.526 60.0731L323.519 60.0842L323.512 60.0955L324.37 60.61ZM327.82 60.28V61.28C327.85 61.28 327.81 61.2856 327.738 61.2483C327.703 61.2297 327.667 61.2042 327.636 61.1727C327.605 61.1416 327.584 61.1115 327.572 61.0889L328.45 60.61L329.328 60.1311C328.995 59.5207 328.4 59.28 327.82 59.28V60.28ZM328.45 60.61L327.631 61.1835C327.636 61.1915 327.66 61.224 327.66 61.33H328.66H329.66C329.66 60.876 329.543 60.4285 329.269 60.0365L328.45 60.61ZM328.66 61.33H327.66V76.09H328.66H329.66V61.33H328.66ZM328.66 76.09H327.66C327.66 76.7709 327.702 77.4106 327.791 78.0065L328.78 77.86L329.769 77.7135C329.697 77.2294 329.66 76.6891 329.66 76.09H328.66ZM328.78 77.86L327.797 78.0421C327.915 78.6791 328.121 79.2657 328.432 79.7845L329.29 79.27L330.147 78.7555C329.979 78.4743 329.845 78.1209 329.763 77.6779L328.78 77.86ZM329.29 79.27L328.432 79.7845C328.761 80.3327 329.209 80.769 329.768 81.0762L330.25 80.2L330.732 79.3238C330.49 79.191 330.298 79.0073 330.147 78.7555L329.29 79.27ZM330.25 80.2L329.768 81.0762C330.355 81.399 331.033 81.53 331.75 81.53V80.53V79.53C331.267 79.53 330.945 79.441 330.732 79.3238L330.25 80.2ZM331.75 80.53V81.53H341.5V80.53V79.53H331.75V80.53ZM341.5 80.53V81.53C341.53 81.53 341.49 81.5356 341.418 81.4983C341.383 81.4797 341.347 81.4542 341.316 81.4227C341.285 81.3916 341.264 81.3615 341.252 81.3389L342.13 80.86L343.008 80.3811C342.675 79.7707 342.08 79.53 341.5 79.53V80.53ZM342.13 80.86L341.311 81.4335C341.316 81.4415 341.34 81.474 341.34 81.58H342.34H343.34C343.34 81.126 343.223 80.6785 342.949 80.2865L342.13 80.86ZM342.34 81.58H341.34V83.95H342.34H343.34V81.58H342.34ZM342.34 83.95H341.34C341.34 84.0545 341.316 84.1155 341.286 84.1631L342.13 84.7L342.974 85.2369C343.223 84.8445 343.34 84.4055 343.34 83.95H342.34ZM342.13 84.7L341.272 84.1855C341.29 84.1556 341.316 84.1225 341.35 84.0913C341.385 84.0601 341.42 84.0374 341.452 84.0221C341.515 83.9925 341.543 84 341.5 84V85V86C342.036 86 342.634 85.8028 342.987 85.2145L342.13 84.7ZM341.5 85V84H331.6V85V86H341.5V85ZM331.6 85V84C330.127 84 329.016 83.7811 328.215 83.4048L327.79 84.31L327.365 85.2152C328.523 85.7589 329.953 86 331.6 86V85ZM327.79 84.31L328.237 83.4156C327.425 83.0097 326.817 82.4668 326.381 81.7892L325.54 82.33L324.699 82.8708C325.343 83.8732 326.234 84.6503 327.343 85.2044L327.79 84.31ZM325.54 82.33L326.39 81.8036C325.948 81.0887 325.627 80.223 325.445 79.1872L324.46 79.36L323.475 79.5328C323.693 80.777 324.092 81.8913 324.69 82.8564L325.54 82.33ZM324.46 79.36L325.448 79.2067C325.277 78.1046 325.19 76.8965 325.19 75.58H324.19H323.19C323.19 76.9835 323.283 78.2954 323.472 79.5133L324.46 79.36ZM324.19 75.58H325.19V61.33H324.19H323.19V75.58H324.19ZM324.19 61.33H325.19C325.19 61.1947 325.218 61.1405 325.227 61.1245L324.37 60.61L323.512 60.0955C323.282 60.4795 323.19 60.9052 323.19 61.33H324.19ZM324.37 60.61L325.214 61.1469C325.202 61.1655 325.183 61.1888 325.157 61.2119C325.131 61.2352 325.104 61.2526 325.079 61.2646C325.029 61.2883 325.012 61.28 325.06 61.28V60.28V59.28C324.487 59.28 323.893 59.4966 323.526 60.0731L324.37 60.61ZM325.06 60.28V61.28H327.82V60.28V59.28H325.06V60.28ZM368.699 60.49L367.991 61.1971L368.042 61.2474L368.099 61.29L368.699 60.49ZM368.789 60.91L367.941 60.38L367.927 60.401L367.915 60.4226L368.789 60.91ZM359.579 77.41L358.705 76.9226L358.579 77.1498V77.41H359.579ZM359.369 84.7L358.549 84.1265L358.529 84.1553L358.511 84.1855L359.369 84.7ZM355.319 84.7L354.461 85.2145L354.479 85.2447L354.499 85.2735L355.319 84.7ZM355.139 77.41H356.139V77.152L356.014 76.9262L355.139 77.41ZM346.019 60.91L346.894 60.4262L346.881 60.4028L346.867 60.38L346.019 60.91ZM346.079 60.49L346.729 61.2493L346.759 61.2243L346.786 61.1971L346.079 60.49ZM350.879 60.85L349.975 61.2781L349.987 61.3037L350.001 61.3285L350.879 60.85ZM357.419 72.85L356.541 73.3285L357.416 74.9343L358.295 73.331L357.419 72.85ZM364.019 60.82L363.144 60.3343L363.142 60.339L364.019 60.82ZM368.219 60.28V61.28C368.175 61.28 368.123 61.2707 368.073 61.2487C368.024 61.2275 367.998 61.2036 367.991 61.1971L368.699 60.49L369.406 59.7829C369.099 59.4759 368.692 59.28 368.219 59.28V60.28ZM368.699 60.49L368.099 61.29C368.062 61.2624 367.916 61.1395 367.863 60.8945C367.808 60.6379 367.898 60.448 367.941 60.38L368.789 60.91L369.637 61.44C369.779 61.212 369.904 60.8721 369.819 60.4755C369.736 60.0905 369.495 59.8376 369.299 59.69L368.699 60.49ZM368.789 60.91L367.915 60.4226L358.705 76.9226L359.579 77.41L360.452 77.8974L369.662 61.3974L368.789 60.91ZM359.579 77.41H358.579V83.98H359.579H360.579V77.41H359.579ZM359.579 83.98H358.579C358.579 84.086 358.555 84.1185 358.549 84.1265L359.369 84.7L360.188 85.2735C360.462 84.8815 360.579 84.434 360.579 83.98H359.579ZM359.369 84.7L358.511 84.1855C358.529 84.1556 358.555 84.1225 358.589 84.0913C358.623 84.0601 358.659 84.0374 358.691 84.0221C358.753 83.9925 358.781 84 358.739 84V85V86C359.275 86 359.873 85.8028 360.226 85.2145L359.369 84.7ZM358.739 85V84H355.979V85V86H358.739V85ZM355.979 85V84C355.938 84 355.955 83.9931 356.002 84.0146C356.026 84.0255 356.053 84.0415 356.079 84.063C356.105 84.0846 356.124 84.107 356.138 84.1265L355.319 84.7L354.499 85.2735C354.87 85.8032 355.437 86 355.979 86V85ZM355.319 84.7L356.176 84.1855C356.166 84.1695 356.139 84.1152 356.139 83.98H355.139H354.139C354.139 84.4048 354.231 84.8305 354.461 85.2145L355.319 84.7ZM355.139 83.98H356.139V77.41H355.139H354.139V83.98H355.139ZM355.139 77.41L356.014 76.9262L346.894 60.4262L346.019 60.91L345.143 61.3937L354.263 77.8937L355.139 77.41ZM346.019 60.91L346.867 60.38C346.9 60.4327 346.982 60.5947 346.949 60.8264C346.915 61.062 346.786 61.2003 346.729 61.2493L346.079 60.49L345.428 59.7307C345.231 59.8997 345.022 60.1679 344.969 60.5436C344.916 60.9153 345.038 61.2273 345.171 61.44L346.019 60.91ZM346.079 60.49L346.786 61.1971C346.77 61.2132 346.738 61.2381 346.692 61.2572C346.646 61.2761 346.608 61.28 346.589 61.28V60.28V59.28C346.126 59.28 345.701 59.4532 345.371 59.7829L346.079 60.49ZM346.589 60.28V61.28H350.009V60.28V59.28H346.589V60.28ZM350.009 60.28V61.28C350.029 61.28 350.032 61.2824 350.022 61.2797C350.018 61.2784 350.011 61.2762 350.003 61.2725C349.994 61.2688 349.986 61.2642 349.978 61.259C349.97 61.2537 349.964 61.2486 349.959 61.2442C349.954 61.2399 349.952 61.2371 349.951 61.2368C349.951 61.2364 349.96 61.2476 349.975 61.2781L350.879 60.85L351.782 60.4219C351.63 60.1011 351.403 59.8014 351.074 59.586C350.742 59.3687 350.373 59.28 350.009 59.28V60.28ZM350.879 60.85L350.001 61.3285L356.541 73.3285L357.419 72.85L358.297 72.3715L351.757 60.3715L350.879 60.85ZM357.419 72.85L358.295 73.331L364.895 61.301L364.019 60.82L363.142 60.339L356.542 72.369L357.419 72.85ZM364.019 60.82L364.893 61.3056C364.91 61.2742 364.922 61.2597 364.926 61.2557C364.928 61.2538 364.928 61.2542 364.925 61.2562C364.923 61.2582 364.919 61.2612 364.913 61.2646C364.908 61.268 364.902 61.2712 364.896 61.2739C364.889 61.2766 364.884 61.2784 364.88 61.2795C364.871 61.2818 364.873 61.28 364.889 61.28V60.28V59.28C364.11 59.28 363.503 59.6895 363.144 60.3344L364.019 60.82ZM364.889 60.28V61.28H368.219V60.28V59.28H364.889V60.28Z" fill="#03DE74" mask="url(#path-2-outside-1_529_103)"/>
<path d="M167.808 106H164.196V105.272L165.372 105.006V97.012L164.196 96.732V96.004H167.808V96.732L166.632 97.012V105.006L167.808 105.272V106ZM179.762 106H178.292L172.944 97.698H172.888C172.907 98.0247 172.93 98.4307 172.958 98.916C172.986 99.4013 173 99.9007 173 100.414V106H171.838V96.004H173.294L178.628 104.278H178.684C178.675 104.129 178.661 103.905 178.642 103.606C178.633 103.307 178.619 102.981 178.6 102.626C178.591 102.271 178.586 101.945 178.586 101.646V96.004H179.762V106ZM192.499 106H191.029L185.681 97.698H185.625C185.644 98.0247 185.667 98.4307 185.695 98.916C185.723 99.4013 185.737 99.9007 185.737 100.414V106H184.575V96.004H186.031L191.365 104.278H191.421C191.412 104.129 191.398 103.905 191.379 103.606C191.37 103.307 191.356 102.981 191.337 102.626C191.328 102.271 191.323 101.945 191.323 101.646V96.004H192.499V106ZM206.034 100.988C206.034 102.024 205.856 102.929 205.502 103.704C205.156 104.469 204.643 105.067 203.962 105.496C203.28 105.925 202.436 106.14 201.428 106.14C200.392 106.14 199.528 105.925 198.838 105.496C198.156 105.067 197.648 104.465 197.312 103.69C196.976 102.915 196.808 102.01 196.808 100.974C196.808 99.9473 196.976 99.0513 197.312 98.286C197.648 97.5207 198.156 96.9233 198.838 96.494C199.528 96.0647 200.396 95.85 201.442 95.85C202.44 95.85 203.28 96.0647 203.962 96.494C204.643 96.914 205.156 97.5113 205.502 98.286C205.856 99.0513 206.034 99.952 206.034 100.988ZM198.138 100.988C198.138 102.248 198.404 103.242 198.936 103.97C199.468 104.689 200.298 105.048 201.428 105.048C202.566 105.048 203.397 104.689 203.92 103.97C204.442 103.242 204.704 102.248 204.704 100.988C204.704 99.728 204.442 98.7433 203.92 98.034C203.397 97.3153 202.571 96.956 201.442 96.956C200.312 96.956 199.477 97.3153 198.936 98.034C198.404 98.7433 198.138 99.728 198.138 100.988ZM217.255 96.004L213.685 106H212.425L208.855 96.004H210.171L212.425 102.416C212.574 102.827 212.7 103.214 212.803 103.578C212.905 103.933 212.989 104.273 213.055 104.6C213.12 104.273 213.204 103.928 213.307 103.564C213.409 103.2 213.535 102.808 213.685 102.388L215.925 96.004H217.255ZM226.419 106L225.215 102.906H221.253L220.063 106H218.789L222.695 95.962H223.829L227.721 106H226.419ZM223.717 98.762C223.689 98.6873 223.642 98.552 223.577 98.356C223.511 98.16 223.446 97.9593 223.381 97.754C223.325 97.5393 223.278 97.376 223.241 97.264C223.175 97.5533 223.101 97.838 223.017 98.118C222.933 98.3887 222.863 98.6033 222.807 98.762L221.673 101.786H224.837L223.717 98.762ZM233.368 106H232.108V97.11H228.986V96.004H236.476V97.11H233.368V106ZM242.897 106H239.285V105.272L240.461 105.006V97.012L239.285 96.732V96.004H242.897V96.732L241.721 97.012V105.006L242.897 105.272V106ZM255.649 100.988C255.649 102.024 255.472 102.929 255.117 103.704C254.772 104.469 254.258 105.067 253.577 105.496C252.896 105.925 252.051 106.14 251.043 106.14C250.007 106.14 249.144 105.925 248.453 105.496C247.772 105.067 247.263 104.465 246.927 103.69C246.591 102.915 246.423 102.01 246.423 100.974C246.423 99.9473 246.591 99.0513 246.927 98.286C247.263 97.5207 247.772 96.9233 248.453 96.494C249.144 96.0647 250.012 95.85 251.057 95.85C252.056 95.85 252.896 96.0647 253.577 96.494C254.258 96.914 254.772 97.5113 255.117 98.286C255.472 99.0513 255.649 99.952 255.649 100.988ZM247.753 100.988C247.753 102.248 248.019 103.242 248.551 103.97C249.083 104.689 249.914 105.048 251.043 105.048C252.182 105.048 253.012 104.689 253.535 103.97C254.058 103.242 254.319 102.248 254.319 100.988C254.319 99.728 254.058 98.7433 253.535 98.034C253.012 97.3153 252.186 96.956 251.057 96.956C249.928 96.956 249.092 97.3153 248.551 98.034C248.019 98.7433 247.753 99.728 247.753 100.988ZM267.888 106H266.418L261.07 97.698H261.014C261.033 98.0247 261.056 98.4307 261.084 98.916C261.112 99.4013 261.126 99.9007 261.126 100.414V106H259.964V96.004H261.42L266.754 104.278H266.81C266.801 104.129 266.787 103.905 266.768 103.606C266.759 103.307 266.745 102.981 266.726 102.626C266.717 102.271 266.712 101.945 266.712 101.646V96.004H267.888V106ZM282.317 103.326C282.317 104.213 281.995 104.903 281.351 105.398C280.707 105.893 279.839 106.14 278.747 106.14C278.187 106.14 277.669 106.098 277.193 106.014C276.717 105.93 276.32 105.813 276.003 105.664V104.46C276.339 104.609 276.754 104.745 277.249 104.866C277.753 104.987 278.271 105.048 278.803 105.048C279.55 105.048 280.11 104.903 280.483 104.614C280.866 104.325 281.057 103.933 281.057 103.438C281.057 103.111 280.987 102.836 280.847 102.612C280.707 102.388 280.464 102.183 280.119 101.996C279.783 101.8 279.312 101.595 278.705 101.38C277.856 101.072 277.212 100.694 276.773 100.246C276.344 99.798 276.129 99.1867 276.129 98.412C276.129 97.88 276.264 97.4273 276.535 97.054C276.806 96.6713 277.179 96.3773 277.655 96.172C278.14 95.9667 278.696 95.864 279.321 95.864C279.872 95.864 280.376 95.9153 280.833 96.018C281.29 96.1207 281.706 96.256 282.079 96.424L281.687 97.502C281.342 97.3527 280.964 97.2267 280.553 97.124C280.152 97.0213 279.732 96.97 279.293 96.97C278.668 96.97 278.196 97.1053 277.879 97.376C277.562 97.6373 277.403 97.9873 277.403 98.426C277.403 98.762 277.473 99.042 277.613 99.266C277.753 99.49 277.982 99.6907 278.299 99.868C278.616 100.045 279.046 100.237 279.587 100.442C280.175 100.657 280.67 100.89 281.071 101.142C281.482 101.385 281.79 101.679 281.995 102.024C282.21 102.369 282.317 102.803 282.317 103.326ZM295.152 100.988C295.152 102.024 294.975 102.929 294.62 103.704C294.275 104.469 293.762 105.067 293.08 105.496C292.399 105.925 291.554 106.14 290.546 106.14C289.51 106.14 288.647 105.925 287.956 105.496C287.275 105.067 286.766 104.465 286.43 103.69C286.094 102.915 285.926 102.01 285.926 100.974C285.926 99.9473 286.094 99.0513 286.43 98.286C286.766 97.5207 287.275 96.9233 287.956 96.494C288.647 96.0647 289.515 95.85 290.56 95.85C291.559 95.85 292.399 96.0647 293.08 96.494C293.762 96.914 294.275 97.5113 294.62 98.286C294.975 99.0513 295.152 99.952 295.152 100.988ZM287.256 100.988C287.256 102.248 287.522 103.242 288.054 103.97C288.586 104.689 289.417 105.048 290.546 105.048C291.685 105.048 292.516 104.689 293.038 103.97C293.561 103.242 293.822 102.248 293.822 100.988C293.822 99.728 293.561 98.7433 293.038 98.034C292.516 97.3153 291.69 96.956 290.56 96.956C289.431 96.956 288.596 97.3153 288.054 98.034C287.522 98.7433 287.256 99.728 287.256 100.988ZM299.468 106V96.004H300.728V104.88H305.096V106H299.468ZM316.375 102.472C316.375 103.163 316.235 103.788 315.955 104.348C315.675 104.899 315.246 105.337 314.667 105.664C314.098 105.981 313.37 106.14 312.483 106.14C311.242 106.14 310.294 105.804 309.641 105.132C308.997 104.451 308.675 103.555 308.675 102.444V96.004H309.935V102.486C309.935 103.298 310.15 103.928 310.579 104.376C311.018 104.824 311.676 105.048 312.553 105.048C313.458 105.048 314.112 104.81 314.513 104.334C314.924 103.849 315.129 103.228 315.129 102.472V96.004H316.375V102.472ZM324.277 106H323.017V97.11H319.895V96.004H327.385V97.11H324.277V106ZM333.807 106H330.195V105.272L331.371 105.006V97.012L330.195 96.732V96.004H333.807V96.732L332.631 97.012V105.006L333.807 105.272V106ZM346.559 100.988C346.559 102.024 346.381 102.929 346.027 103.704C345.681 104.469 345.168 105.067 344.487 105.496C343.805 105.925 342.961 106.14 341.953 106.14C340.917 106.14 340.053 105.925 339.363 105.496C338.681 105.067 338.173 104.465 337.837 103.69C337.501 102.915 337.333 102.01 337.333 100.974C337.333 99.9473 337.501 99.0513 337.837 98.286C338.173 97.5207 338.681 96.9233 339.363 96.494C340.053 96.0647 340.921 95.85 341.967 95.85C342.965 95.85 343.805 96.0647 344.487 96.494C345.168 96.914 345.681 97.5113 346.027 98.286C346.381 99.0513 346.559 99.952 346.559 100.988ZM338.663 100.988C338.663 102.248 338.929 103.242 339.461 103.97C339.993 104.689 340.823 105.048 341.953 105.048C343.091 105.048 343.922 104.689 344.445 103.97C344.967 103.242 345.229 102.248 345.229 100.988C345.229 99.728 344.967 98.7433 344.445 98.034C343.922 97.3153 343.096 96.956 341.967 96.956C340.837 96.956 340.002 97.3153 339.461 98.034C338.929 98.7433 338.663 99.728 338.663 100.988ZM358.798 106H357.328L351.98 97.698H351.924C351.943 98.0247 351.966 98.4307 351.994 98.916C352.022 99.4013 352.036 99.9007 352.036 100.414V106H350.874V96.004H352.33L357.664 104.278H357.72C357.711 104.129 357.697 103.905 357.678 103.606C357.669 103.307 357.655 102.981 357.636 102.626C357.627 102.271 357.622 101.945 357.622 101.646V96.004H358.798V106ZM369.281 103.326C369.281 104.213 368.959 104.903 368.315 105.398C367.671 105.893 366.803 106.14 365.711 106.14C365.151 106.14 364.633 106.098 364.157 106.014C363.681 105.93 363.284 105.813 362.967 105.664V104.46C363.303 104.609 363.718 104.745 364.213 104.866C364.717 104.987 365.235 105.048 365.767 105.048C366.514 105.048 367.074 104.903 367.447 104.614C367.83 104.325 368.021 103.933 368.021 103.438C368.021 103.111 367.951 102.836 367.811 102.612C367.671 102.388 367.428 102.183 367.083 101.996C366.747 101.8 366.276 101.595 365.669 101.38C364.82 101.072 364.176 100.694 363.737 100.246C363.308 99.798 363.093 99.1867 363.093 98.412C363.093 97.88 363.228 97.4273 363.499 97.054C363.77 96.6713 364.143 96.3773 364.619 96.172C365.104 95.9667 365.66 95.864 366.285 95.864C366.836 95.864 367.34 95.9153 367.797 96.018C368.254 96.1207 368.67 96.256 369.043 96.424L368.651 97.502C368.306 97.3527 367.928 97.2267 367.517 97.124C367.116 97.0213 366.696 96.97 366.257 96.97C365.632 96.97 365.16 97.1053 364.843 97.376C364.526 97.6373 364.367 97.9873 364.367 98.426C364.367 98.762 364.437 99.042 364.577 99.266C364.717 99.49 364.946 99.6907 365.263 99.868C365.58 100.045 366.01 100.237 366.551 100.442C367.139 100.657 367.634 100.89 368.035 101.142C368.446 101.385 368.754 101.679 368.959 102.024C369.174 102.369 369.281 102.803 369.281 103.326Z" fill="black"/>
<path d="M75.7809 13L10 50.7612V127.809L75.7809 165.57L149.217 127.809V50.7612L75.7809 13Z" fill="#0B1F52"/>
<path d="M73.5253 32.0713L22.4224 61.7956V110.307V125.902L37.404 133.912V96.9137L73.5253 76.6981V62.9668L37.404 83.5638V67.9253L73.5253 46.9469V32.0713Z" fill="#83FFC0"/>
<path d="M78.9658 32.0713L133.796 59.9154V74.0281L92.2449 52.6683V65.6368L113.02 76.126L133.796 86.6152V126.283L117.09 134.293H96.1001L105.952 129.335L114.091 125.139H117.946V94.2437L98.0278 85.4709L78.9658 76.6981V32.0713Z" fill="#58FFE6"/>
<path d="M66.9717 87.5197L75.9672 81.6567L84.9627 86.6177V117.285V147.051L75.9672 153.365L66.9717 147.051V87.5197Z" fill="#03DE74"/>
<line x1="154.5" y1="51.1426" x2="154.5" y2="127.428" stroke="#0B1F52" stroke-width="2"/>
</g>
<defs>
<filter id="filter0_d_529_103" x="6" y="13" width="367.847" height="160.57" filterUnits="userSpaceOnUse" color-interpolation-filters="sRGB">
<feFlood flood-opacity="0" result="BackgroundImageFix"/>
<feColorMatrix in="SourceAlpha" type="matrix" values="0 0 0 0 0 0 0 0 0 0 0 0 0 0 0 0 0 0 127 0" result="hardAlpha"/>
<feOffset dy="4"/>
<feGaussianBlur stdDeviation="2"/>
<feComposite in2="hardAlpha" operator="out"/>
<feColorMatrix type="matrix" values="0 0 0 0 0 0 0 0 0 0 0 0 0 0 0 0 0 0 0.25 0"/>
<feBlend mode="normal" in2="BackgroundImageFix" result="effect1_dropShadow_529_103"/>
<feBlend mode="normal" in="SourceGraphic" in2="effect1_dropShadow_529_103" result="shape"/>
</filter>
</defs>
</svg>
