<svg width="148" height="161" viewBox="0 0 148 161" fill="none" xmlns="http://www.w3.org/2000/svg">
<g filter="url(#filter0_d_530_128)">
<path d="M69.7809 0L4 37.7612V114.809L69.7809 152.57L143.217 114.809V37.7612L69.7809 0Z" fill="#0B1F52"/>
<path d="M67.5253 19.0713L16.4224 48.7956V97.3067V112.902L31.404 120.912V83.9137L67.5253 63.6981V49.9668L31.404 70.5638V54.9253L67.5253 33.9469V19.0713Z" fill="#83FFC0"/>
<path d="M72.9658 19.0713L127.796 46.9154V61.0281L86.2449 39.6683V52.6368L107.02 63.126L127.796 73.6152V113.283L111.09 121.293H90.1001L99.9524 116.335L108.091 112.139H111.946V81.2437L92.0278 72.4709L72.9658 63.6981V19.0713Z" fill="#58FFE6"/>
<path d="M60.9717 74.5197L69.9672 68.6567L78.9627 73.6177V104.285V134.051L69.9672 140.365L60.9717 134.051V74.5197Z" fill="#03DE74"/>
</g>
<defs>
<filter id="filter0_d_530_128" x="0" y="0" width="147.217" height="160.57" filterUnits="userSpaceOnUse" color-interpolation-filters="sRGB">
<feFlood flood-opacity="0" result="BackgroundImageFix"/>
<feColorMatrix in="SourceAlpha" type="matrix" values="0 0 0 0 0 0 0 0 0 0 0 0 0 0 0 0 0 0 127 0" result="hardAlpha"/>
<feOffset dy="4"/>
<feGaussianBlur stdDeviation="2"/>
<feComposite in2="hardAlpha" operator="out"/>
<feColorMatrix type="matrix" values="0 0 0 0 0 0 0 0 0 0 0 0 0 0 0 0 0 0 0.25 0"/>
<feBlend mode="normal" in2="BackgroundImageFix" result="effect1_dropShadow_530_128"/>
<feBlend mode="normal" in="SourceGraphic" in2="effect1_dropShadow_530_128" result="shape"/>
</filter>
</defs>
</svg>
